<svg xmlns="http://www.w3.org/2000/svg" xmlns:xlink="http://www.w3.org/1999/xlink" width="500" zoomAndPan="magnify" viewBox="0 0 375 374.999991" height="500" preserveAspectRatio="xMidYMid meet" version="1.0"><defs><clipPath id="b4fff0736b"><path d="M 0 0 L 375 0 L 375 374.25 L 0 374.25 Z M 0 0 " clip-rule="nonzero"/></clipPath></defs><g clip-path="url(#b4fff0736b)"><path fill="#000000" d="M 367.085938 250.273438 C 363.164062 250.273438 359.980469 247.085938 359.980469 243.160156 L 359.980469 24.996094 L 239.3125 145.71875 C 236.535156 148.492188 232.035156 148.492188 229.261719 145.71875 C 226.484375 142.941406 226.484375 138.4375 229.261719 135.660156 L 362.0625 2.792969 C 364.09375 0.757812 367.148438 0.148438 369.808594 1.25 C 372.460938 2.351562 374.195312 4.945312 374.195312 7.820312 L 374.195312 243.160156 C 374.195312 247.085938 371.015625 250.273438 367.085938 250.273438 Z M 7.949219 374.25 C 4.027344 374.25 0.84375 371.066406 0.84375 367.136719 L 0.84375 119.183594 C 0.84375 116.304688 2.574219 113.710938 5.230469 112.609375 C 7.886719 111.507812 10.945312 112.117188 12.976562 114.152344 L 136.894531 238.132812 C 139.667969 240.90625 139.667969 245.414062 136.894531 248.1875 C 134.117188 250.96875 129.617188 250.96875 126.839844 248.1875 L 15.058594 136.351562 L 15.058594 367.136719 C 15.058594 371.066406 11.875 374.25 7.949219 374.25 Z M 367.085938 374.25 C 365.269531 374.25 363.449219 373.554688 362.0625 372.167969 L 2.925781 12.851562 C 0.148438 10.074219 0.148438 5.570312 2.925781 2.792969 C 5.703125 0.015625 10.199219 0.015625 12.976562 2.792969 L 372.113281 362.109375 C 374.890625 364.886719 374.890625 369.390625 372.113281 372.167969 C 370.722656 373.554688 368.902344 374.25 367.085938 374.25 " fill-opacity="1" fill-rule="nonzero"/></g></svg>