<svg xmlns="http://www.w3.org/2000/svg" xmlns:xlink="http://www.w3.org/1999/xlink" width="500" zoomAndPan="magnify" viewBox="0 0 375 374.999991" height="500" preserveAspectRatio="xMidYMid meet" version="1.0"><defs><clipPath id="e196cc0efc"><path d="M 186 108 L 348.75 108 L 348.75 282 L 186 282 Z M 186 108 " clip-rule="nonzero"/></clipPath><clipPath id="9f3d728a6d"><path d="M 37.5 66 L 75 66 L 75 104 L 37.5 104 Z M 37.5 66 " clip-rule="nonzero"/></clipPath></defs><path fill="#f9ed32" d="M 200.90625 51.710938 C 201.574219 51.710938 202.238281 51.679688 202.902344 51.613281 C 203.566406 51.546875 204.222656 51.449219 204.878906 51.320312 C 205.53125 51.191406 206.179688 51.027344 206.816406 50.835938 C 207.457031 50.640625 208.082031 50.417969 208.699219 50.164062 C 209.316406 49.90625 209.917969 49.625 210.503906 49.308594 C 211.09375 48.996094 211.664062 48.652344 212.21875 48.285156 C 212.773438 47.914062 213.308594 47.519531 213.824219 47.09375 C 214.339844 46.671875 214.832031 46.226562 215.304688 45.753906 C 215.777344 45.285156 216.226562 44.792969 216.648438 44.277344 C 217.070312 43.761719 217.46875 43.226562 217.839844 42.675781 C 218.210938 42.121094 218.550781 41.550781 218.867188 40.960938 C 219.183594 40.375 219.464844 39.773438 219.722656 39.160156 C 219.976562 38.542969 220.203125 37.917969 220.394531 37.28125 C 220.589844 36.640625 220.753906 35.996094 220.882812 35.34375 C 221.011719 34.691406 221.113281 34.03125 221.175781 33.371094 C 221.242188 32.707031 221.277344 32.042969 221.277344 31.375 C 221.277344 30.710938 221.246094 30.046875 221.179688 29.382812 C 221.113281 28.71875 221.019531 28.0625 220.886719 27.40625 C 220.757812 26.753906 220.597656 26.109375 220.402344 25.472656 C 220.210938 24.832031 219.988281 24.207031 219.730469 23.589844 C 219.476562 22.976562 219.191406 22.375 218.878906 21.785156 C 218.566406 21.199219 218.222656 20.628906 217.851562 20.074219 C 217.484375 19.519531 217.085938 18.984375 216.664062 18.46875 C 216.242188 17.953125 215.796875 17.460938 215.324219 16.988281 C 214.851562 16.519531 214.359375 16.070312 213.84375 15.648438 C 213.328125 15.222656 212.796875 14.828125 212.242188 14.457031 C 211.6875 14.085938 211.117188 13.742188 210.527344 13.429688 C 209.941406 13.113281 209.339844 12.828125 208.722656 12.574219 C 208.105469 12.316406 207.480469 12.09375 206.84375 11.898438 C 206.203125 11.703125 205.558594 11.542969 204.902344 11.410156 C 204.25 11.28125 203.589844 11.183594 202.929688 11.117188 C 202.265625 11.050781 201.597656 11.015625 200.933594 11.015625 C 200.265625 11.015625 199.601562 11.046875 198.9375 11.109375 C 198.273438 11.175781 197.613281 11.273438 196.960938 11.402344 C 196.304688 11.53125 195.660156 11.691406 195.019531 11.882812 C 194.382812 12.074219 193.753906 12.300781 193.136719 12.554688 C 192.519531 12.808594 191.917969 13.089844 191.332031 13.402344 C 190.742188 13.71875 190.167969 14.058594 189.613281 14.425781 C 189.058594 14.796875 188.523438 15.191406 188.007812 15.613281 C 187.492188 16.035156 186.996094 16.480469 186.523438 16.953125 C 186.050781 17.421875 185.605469 17.914062 185.179688 18.429688 C 184.757812 18.941406 184.359375 19.476562 183.988281 20.03125 C 183.617188 20.582031 183.273438 21.152344 182.957031 21.742188 C 182.640625 22.328125 182.355469 22.929688 182.101562 23.542969 C 181.84375 24.160156 181.617188 24.785156 181.421875 25.421875 C 181.230469 26.058594 181.066406 26.703125 180.933594 27.355469 C 180.804688 28.011719 180.703125 28.667969 180.636719 29.332031 C 180.570312 29.992188 180.535156 30.65625 180.535156 31.324219 C 180.535156 31.992188 180.566406 32.65625 180.632812 33.320312 C 180.699219 33.984375 180.796875 34.640625 180.925781 35.296875 C 181.058594 35.949219 181.21875 36.597656 181.414062 37.234375 C 181.605469 37.875 181.832031 38.5 182.085938 39.117188 C 182.339844 39.734375 182.625 40.335938 182.941406 40.921875 C 183.253906 41.511719 183.597656 42.082031 183.96875 42.636719 C 184.335938 43.191406 184.734375 43.726562 185.15625 44.242188 C 185.582031 44.757812 186.027344 45.253906 186.5 45.726562 C 186.972656 46.199219 187.464844 46.644531 187.980469 47.070312 C 188.496094 47.492188 189.03125 47.890625 189.585938 48.261719 C 190.140625 48.632812 190.710938 48.976562 191.300781 49.289062 C 191.890625 49.605469 192.492188 49.890625 193.109375 50.148438 C 193.722656 50.402344 194.351562 50.628906 194.988281 50.824219 C 195.628906 51.019531 196.273438 51.179688 196.929688 51.3125 C 197.585938 51.445312 198.242188 51.542969 198.90625 51.609375 C 199.574219 51.675781 200.238281 51.710938 200.90625 51.710938 Z M 200.90625 51.710938 " fill-opacity="0.78" fill-rule="evenodd"/><path fill="#662d91" d="M 299.582031 67.398438 C 302.335938 70.589844 304.863281 73.949219 307.164062 77.484375 C 309.460938 81.015625 311.511719 84.6875 313.3125 88.496094 C 315.113281 92.308594 316.648438 96.21875 317.917969 100.238281 C 319.1875 104.253906 320.179688 108.339844 320.894531 112.492188 C 325.023438 136.613281 318.726562 158.941406 323.140625 173.953125 C 324.175781 177.316406 325.5625 180.53125 327.296875 183.597656 C 326.265625 184.199219 325.21875 184.769531 324.152344 185.308594 C 323.085938 185.847656 322.007812 186.355469 320.914062 186.835938 C 319.820312 187.3125 318.714844 187.757812 317.59375 188.175781 C 316.472656 188.589844 315.34375 188.972656 314.203125 189.320312 C 313.0625 189.671875 311.910156 189.988281 310.75 190.273438 C 309.589844 190.558594 308.421875 190.808594 307.25 191.023438 C 306.074219 191.242188 304.894531 191.425781 303.710938 191.574219 C 302.527344 191.726562 301.339844 191.839844 300.148438 191.921875 C 298.957031 192.003906 297.761719 192.050781 296.570312 192.0625 C 295.375 192.078125 294.183594 192.054688 292.988281 192 C 291.796875 191.945312 290.605469 191.855469 289.417969 191.734375 C 288.230469 191.609375 287.046875 191.453125 285.867188 191.261719 C 284.691406 191.070312 283.519531 190.847656 282.351562 190.589844 C 281.1875 190.328125 280.027344 190.039062 278.878906 189.714844 C 277.730469 189.390625 276.59375 189.03125 275.464844 188.640625 C 274.335938 188.253906 273.21875 187.832031 272.113281 187.378906 C 271.011719 186.921875 269.917969 186.4375 268.84375 185.921875 C 267.765625 185.40625 266.707031 184.859375 265.660156 184.28125 C 264.617188 183.707031 263.585938 183.097656 262.578125 182.464844 C 261.566406 181.828125 260.574219 181.164062 259.605469 180.46875 C 258.632812 179.777344 257.679688 179.058594 256.75 178.308594 C 255.820312 177.5625 254.910156 176.789062 254.023438 175.992188 C 253.136719 175.191406 252.273438 174.367188 251.4375 173.519531 C 250.597656 172.671875 249.78125 171.796875 248.992188 170.902344 C 248.203125 170.007812 247.441406 169.089844 246.707031 168.152344 C 245.96875 167.210938 245.261719 166.253906 244.578125 165.273438 C 243.898438 164.292969 243.246094 163.296875 242.621094 162.277344 C 241.996094 161.261719 241.402344 160.226562 240.839844 159.175781 C 240.273438 158.125 239.742188 157.058594 239.238281 155.976562 C 238.734375 154.894531 238.261719 153.800781 237.820312 152.691406 C 237.378906 151.582031 236.972656 150.464844 236.597656 149.332031 C 236.21875 148.199219 235.878906 147.058594 235.566406 145.90625 C 235.257812 144.753906 234.980469 143.59375 234.734375 142.425781 C 234.492188 141.257812 234.28125 140.085938 234.105469 138.90625 C 233.925781 137.726562 233.785156 136.542969 233.675781 135.355469 C 233.566406 134.167969 233.492188 132.976562 233.453125 131.785156 C 233.414062 130.59375 233.40625 129.402344 233.433594 128.207031 C 233.464844 127.015625 233.527344 125.824219 233.621094 124.636719 C 233.71875 123.445312 233.847656 122.261719 234.015625 121.082031 C 234.179688 119.898438 234.375 118.722656 234.609375 117.554688 C 234.839844 116.382812 235.105469 115.222656 235.40625 114.066406 C 235.703125 112.910156 236.035156 111.765625 236.402344 110.628906 C 236.765625 109.496094 237.164062 108.371094 237.589844 107.257812 C 238.019531 106.144531 238.480469 105.042969 238.972656 103.957031 C 239.464844 102.871094 239.988281 101.800781 240.542969 100.742188 C 241.097656 99.6875 241.679688 98.644531 242.292969 97.621094 C 242.90625 96.601562 243.550781 95.59375 244.222656 94.609375 C 244.894531 93.621094 245.59375 92.65625 246.320312 91.710938 C 247.046875 90.761719 247.800781 89.839844 248.578125 88.933594 C 249.359375 88.03125 250.164062 87.152344 250.996094 86.292969 C 251.824219 85.4375 252.679688 84.605469 253.558594 83.796875 C 254.4375 82.988281 255.335938 82.207031 256.257812 81.449219 C 257.183594 80.691406 258.125 79.964844 259.09375 79.261719 C 260.058594 78.558594 261.042969 77.882812 262.046875 77.238281 C 263.050781 76.59375 264.070312 75.976562 265.109375 75.386719 C 266.148438 74.800781 267.203125 74.242188 268.273438 73.714844 C 269.347656 73.1875 270.433594 72.691406 271.53125 72.226562 C 272.632812 71.761719 273.742188 71.332031 274.867188 70.929688 C 275.992188 70.527344 277.128906 70.160156 278.273438 69.824219 C 279.417969 69.488281 280.574219 69.183594 281.734375 68.914062 C 282.898438 68.644531 284.070312 68.40625 285.246094 68.203125 C 286.421875 68 287.605469 67.832031 288.789062 67.695312 C 289.976562 67.5625 291.167969 67.460938 292.359375 67.394531 C 293.550781 67.324219 294.742188 67.292969 295.9375 67.292969 C 297.113281 67.292969 298.355469 67.332031 299.582031 67.398438 Z M 299.582031 67.398438 " fill-opacity="0.78" fill-rule="evenodd"/><g clip-path="url(#e196cc0efc)"><path fill="#92278f" d="M 322.109375 123.101562 C 323.417969 143.085938 319.378906 161.175781 323.140625 174.003906 C 329.585938 195.917969 358.132812 215.769531 344.792969 227.046875 C 340.574219 230.425781 333.308594 230.648438 329.046875 233.964844 C 322.265625 239.25 326.90625 244.964844 327.507812 249.089844 C 327.792969 251.046875 326.015625 254.195312 320.148438 258.019531 C 324.578125 261.28125 324.175781 264.046875 322.59375 266.59375 C 320.433594 268.070312 318.214844 269.449219 315.929688 270.726562 C 313.644531 272.003906 311.308594 273.175781 308.917969 274.242188 C 306.53125 275.308594 304.097656 276.265625 301.621094 277.113281 C 299.144531 277.960938 296.636719 278.695312 294.09375 279.316406 C 291.550781 279.9375 288.984375 280.441406 286.394531 280.828125 C 283.808594 281.21875 281.207031 281.488281 278.59375 281.640625 C 275.980469 281.796875 273.367188 281.832031 270.75 281.75 C 268.132812 281.667969 265.527344 281.46875 262.929688 281.148438 C 260.332031 280.832031 257.753906 280.398438 255.191406 279.847656 C 252.632812 279.296875 250.105469 278.632812 247.605469 277.851562 C 245.109375 277.074219 242.648438 276.183594 240.230469 275.183594 C 237.8125 274.183594 235.445312 273.074219 233.128906 271.859375 C 230.8125 270.644531 228.550781 269.328125 226.355469 267.910156 C 224.15625 266.488281 222.027344 264.976562 219.964844 263.363281 C 217.902344 261.753906 215.917969 260.050781 214.011719 258.261719 C 212.101562 256.472656 210.28125 254.597656 208.542969 252.644531 C 206.804688 250.6875 205.15625 248.660156 203.605469 246.554688 C 202.050781 244.453125 200.59375 242.28125 199.234375 240.046875 C 197.878906 237.8125 196.621094 235.519531 195.472656 233.171875 C 194.320312 230.824219 193.28125 228.429688 192.347656 225.984375 C 191.414062 223.542969 190.589844 221.0625 189.882812 218.546875 C 189.171875 216.03125 188.578125 213.488281 188.097656 210.917969 C 187.621094 208.347656 187.257812 205.761719 187.011719 203.15625 C 186.769531 200.554688 186.640625 197.945312 186.632812 195.332031 C 186.625 192.714844 186.734375 190.105469 186.960938 187.5 C 187.1875 184.898438 187.53125 182.308594 187.992188 179.734375 C 188.457031 177.160156 189.03125 174.613281 189.726562 172.09375 C 190.417969 169.570312 191.222656 167.085938 192.140625 164.636719 C 193.054688 162.1875 194.082031 159.785156 195.21875 157.429688 C 196.351562 155.074219 197.589844 152.773438 198.933594 150.53125 C 200.277344 148.285156 201.71875 146.105469 203.257812 143.992188 C 204.796875 141.878906 206.429688 139.835938 208.15625 137.871094 C 209.878906 135.90625 211.691406 134.019531 213.585938 132.214844 C 215.480469 130.414062 217.453125 128.699219 219.503906 127.074219 C 221.554688 125.449219 223.675781 123.921875 225.863281 122.488281 C 228.054688 121.054688 230.300781 119.722656 232.613281 118.492188 C 234.921875 117.261719 237.28125 116.136719 239.691406 115.121094 C 242.105469 114.101562 244.554688 113.195312 247.050781 112.398438 C 249.542969 111.605469 252.066406 110.921875 254.621094 110.355469 C 257.175781 109.785156 259.753906 109.335938 262.347656 109 C 264.945312 108.664062 267.550781 108.449219 270.164062 108.347656 C 272.78125 108.246094 275.394531 108.265625 278.007812 108.402344 C 280.625 108.539062 283.226562 108.792969 285.816406 109.164062 C 288.40625 109.535156 290.976562 110.023438 293.523438 110.625 C 296.070312 111.226562 298.585938 111.945312 301.066406 112.773438 C 303.546875 113.605469 305.988281 114.546875 308.386719 115.597656 C 310.78125 116.648438 313.125 117.804688 315.417969 119.066406 C 317.710938 120.328125 319.941406 121.691406 322.109375 123.15625 Z M 322.109375 123.101562 " fill-opacity="0.78" fill-rule="evenodd"/></g><path fill="#007fc6" d="M 303.515625 314.804688 C 270.523438 328.222656 226.359375 283.222656 220.414062 375 C 198.964844 360.929688 176.234375 349.375 152.21875 340.335938 C 151.230469 338.882812 150.289062 337.398438 149.390625 335.886719 C 148.496094 334.375 147.648438 332.835938 146.847656 331.269531 C 146.046875 329.707031 145.296875 328.117188 144.597656 326.503906 C 143.894531 324.894531 143.246094 323.261719 142.648438 321.609375 C 142.050781 319.957031 141.503906 318.285156 141.007812 316.597656 C 140.515625 314.914062 140.074219 313.210938 139.6875 311.496094 C 139.300781 309.785156 138.964844 308.058594 138.6875 306.324219 C 138.40625 304.589844 138.183594 302.847656 138.011719 301.097656 C 137.839844 299.347656 137.726562 297.597656 137.664062 295.839844 C 137.605469 294.082031 137.597656 292.328125 137.648438 290.570312 C 137.699219 288.8125 137.800781 287.058594 137.960938 285.308594 C 138.121094 283.558594 138.332031 281.816406 138.601562 280.078125 C 138.871094 278.34375 139.191406 276.617188 139.570312 274.898438 C 139.945312 273.183594 140.375 271.480469 140.859375 269.789062 C 141.339844 268.101562 141.875 266.425781 142.464844 264.769531 C 143.050781 263.113281 143.691406 261.476562 144.378906 259.859375 C 145.070312 258.246094 145.8125 256.652344 146.601562 255.082031 C 147.390625 253.511719 148.230469 251.964844 149.117188 250.449219 C 150.003906 248.929688 150.9375 247.441406 151.914062 245.980469 C 152.894531 244.523438 153.921875 243.09375 154.988281 241.699219 C 156.058594 240.304688 157.171875 238.941406 158.324219 237.617188 C 159.480469 236.289062 160.675781 235.003906 161.910156 233.75 C 163.144531 232.5 164.417969 231.289062 165.730469 230.117188 C 167.039062 228.945312 168.386719 227.8125 169.769531 226.726562 C 171.148438 225.636719 172.5625 224.59375 174.011719 223.59375 C 175.457031 222.59375 176.933594 221.640625 178.441406 220.734375 C 179.949219 219.828125 181.480469 218.96875 183.042969 218.15625 C 184.601562 217.34375 186.1875 216.582031 187.796875 215.871094 C 189.40625 215.160156 191.035156 214.496094 192.683594 213.886719 C 194.332031 213.277344 196 212.71875 197.683594 212.210938 C 199.371094 211.703125 201.070312 211.25 202.78125 210.851562 C 204.496094 210.449219 206.21875 210.101562 207.953125 209.808594 C 209.6875 209.515625 211.429688 209.277344 213.179688 209.09375 C 214.929688 208.910156 216.683594 208.78125 218.441406 208.707031 C 220.199219 208.632812 221.957031 208.613281 223.714844 208.648438 C 225.476562 208.683594 227.230469 208.777344 228.984375 208.921875 C 230.738281 209.066406 232.484375 209.265625 234.226562 209.519531 C 235.96875 209.773438 237.699219 210.082031 239.417969 210.445312 C 241.140625 210.808594 242.847656 211.222656 244.546875 211.691406 C 246.242188 212.164062 247.917969 212.683594 249.582031 213.257812 C 251.246094 213.832031 252.886719 214.457031 254.511719 215.132812 C 256.136719 215.8125 257.738281 216.539062 259.316406 217.316406 C 260.894531 218.089844 262.445312 218.917969 263.972656 219.789062 C 265.5 220.664062 266.996094 221.585938 268.464844 222.550781 C 269.933594 223.519531 271.371094 224.53125 272.777344 225.589844 C 274.183594 226.644531 275.554688 227.746094 276.890625 228.886719 C 278.226562 230.03125 279.527344 231.214844 280.789062 232.4375 C 282.050781 233.664062 283.273438 234.925781 284.457031 236.226562 C 285.640625 237.523438 286.78125 238.859375 287.882812 240.234375 C 288.980469 241.605469 290.039062 243.007812 291.050781 244.445312 C 292.0625 245.882812 293.027344 247.351562 293.949219 248.851562 C 294.867188 250.347656 295.738281 251.875 296.566406 253.425781 C 297.390625 254.976562 298.164062 256.554688 298.890625 258.15625 C 299.617188 259.757812 300.289062 261.378906 300.914062 263.019531 C 301.539062 264.664062 302.113281 266.324219 302.632812 268.003906 C 303.152344 269.683594 303.621094 271.375 304.035156 273.085938 C 304.449219 274.792969 304.808594 276.511719 305.113281 278.242188 C 305.421875 279.972656 305.675781 281.710938 305.871094 283.457031 C 306.070312 285.203125 306.210938 286.953125 306.300781 288.707031 C 306.390625 290.464844 306.421875 292.21875 306.398438 293.976562 C 306.378906 295.734375 306.300781 297.488281 306.171875 299.242188 C 306.039062 300.996094 305.851562 302.742188 305.609375 304.480469 C 305.371094 306.222656 305.074219 307.953125 304.726562 309.675781 C 304.375 311.398438 303.972656 313.109375 303.515625 314.804688 Z M 303.515625 314.804688 " fill-opacity="0.78" fill-rule="evenodd"/><path fill="#01a6e6" d="M 255.078125 315.277344 C 237.648438 316.007812 223.589844 326.03125 220.414062 375 C 199.082031 361.011719 176.488281 349.503906 152.625 340.476562 C 152.660156 338.992188 152.757812 337.511719 152.914062 336.03125 C 153.070312 334.554688 153.285156 333.085938 153.5625 331.625 C 153.839844 330.167969 154.175781 328.71875 154.570312 327.285156 C 154.964844 325.855469 155.417969 324.441406 155.929688 323.042969 C 156.4375 321.648438 157.003906 320.273438 157.628906 318.925781 C 158.25 317.574219 158.925781 316.253906 159.65625 314.960938 C 160.386719 313.664062 161.171875 312.402344 162.003906 311.171875 C 162.839844 309.941406 163.722656 308.746094 164.652344 307.585938 C 165.585938 306.429688 166.5625 305.308594 167.585938 304.230469 C 168.609375 303.152344 169.671875 302.117188 170.78125 301.125 C 171.886719 300.132812 173.035156 299.1875 174.21875 298.289062 C 175.402344 297.390625 176.625 296.539062 177.878906 295.742188 C 179.132812 294.941406 180.417969 294.195312 181.730469 293.5 C 183.046875 292.804688 184.390625 292.167969 185.757812 291.582031 C 187.125 290.996094 188.511719 290.46875 189.925781 289.996094 C 191.335938 289.523438 192.761719 289.109375 194.207031 288.753906 C 195.652344 288.398438 197.109375 288.105469 198.578125 287.867188 C 200.046875 287.628906 201.523438 287.453125 203.003906 287.339844 C 204.488281 287.222656 205.972656 287.167969 207.460938 287.171875 C 208.949219 287.175781 210.433594 287.242188 211.917969 287.367188 C 213.398438 287.492188 214.875 287.679688 216.339844 287.925781 C 217.808594 288.171875 219.261719 288.476562 220.703125 288.84375 C 222.148438 289.207031 223.570312 289.628906 224.980469 290.113281 C 226.386719 290.59375 227.773438 291.128906 229.136719 291.726562 C 230.5 292.320312 231.835938 292.96875 233.148438 293.671875 C 234.457031 294.375 235.738281 295.128906 236.988281 295.9375 C 238.238281 296.746094 239.449219 297.601562 240.628906 298.507812 C 241.808594 299.414062 242.949219 300.367188 244.050781 301.367188 C 245.148438 302.367188 246.207031 303.410156 247.222656 304.496094 C 248.238281 305.582031 249.210938 306.707031 250.132812 307.871094 C 251.058594 309.035156 251.933594 310.234375 252.757812 311.472656 C 253.582031 312.707031 254.355469 313.976562 255.078125 315.277344 Z M 255.078125 315.277344 " fill-opacity="0.78" fill-rule="evenodd"/><path fill="#2063b2" d="M 334.796875 231.15625 C 332.726562 231.757812 330.8125 232.675781 329.046875 233.910156 C 322.265625 239.199219 326.90625 244.914062 327.507812 249.039062 C 327.792969 250.996094 326.015625 254.140625 320.148438 257.964844 C 326.929688 262.964844 322.371094 266.789062 319.640625 270.46875 C 306.953125 279.605469 324.605469 299.40625 303.671875 314.753906 C 282.546875 323.445312 256.855469 308.109375 239.503906 319.882812 C 239.230469 318.300781 239.003906 316.710938 238.828125 315.113281 C 238.652344 313.515625 238.523438 311.914062 238.449219 310.308594 C 238.371094 308.703125 238.34375 307.097656 238.367188 305.488281 C 238.390625 303.882812 238.460938 302.277344 238.585938 300.675781 C 238.707031 299.074219 238.878906 297.476562 239.101562 295.882812 C 239.324219 294.292969 239.59375 292.707031 239.914062 291.132812 C 240.234375 289.558594 240.601562 287.996094 241.019531 286.441406 C 241.4375 284.890625 241.902344 283.351562 242.414062 281.832031 C 242.925781 280.308594 243.484375 278.800781 244.09375 277.3125 C 244.699219 275.824219 245.351562 274.355469 246.046875 272.90625 C 246.746094 271.457031 247.484375 270.03125 248.273438 268.628906 C 249.058594 267.226562 249.886719 265.851562 250.757812 264.5 C 251.628906 263.148438 252.542969 261.828125 253.496094 260.53125 C 254.449219 259.238281 255.441406 257.972656 256.472656 256.742188 C 257.503906 255.507812 258.574219 254.308594 259.679688 253.140625 C 260.789062 251.976562 261.929688 250.84375 263.105469 249.746094 C 264.28125 248.652344 265.492188 247.59375 266.734375 246.574219 C 267.976562 245.550781 269.25 244.570312 270.554688 243.628906 C 271.855469 242.6875 273.1875 241.785156 274.546875 240.925781 C 275.90625 240.066406 277.292969 239.25 278.703125 238.476562 C 280.113281 237.699219 281.542969 236.972656 283 236.285156 C 284.457031 235.601562 285.929688 234.960938 287.425781 234.367188 C 288.921875 233.773438 290.433594 233.226562 291.960938 232.726562 C 293.492188 232.226562 295.035156 231.777344 296.589844 231.371094 C 298.148438 230.96875 299.71875 230.613281 301.296875 230.304688 C 302.875 229.996094 304.460938 229.738281 306.058594 229.53125 C 307.652344 229.320312 309.253906 229.164062 310.859375 229.050781 C 312.464844 228.941406 314.070312 228.882812 315.679688 228.871094 C 317.289062 228.863281 318.894531 228.902344 320.503906 228.992188 C 322.109375 229.082031 323.710938 229.21875 325.308594 229.410156 C 326.90625 229.597656 328.496094 229.835938 330.078125 230.125 C 331.664062 230.410156 333.234375 230.746094 334.796875 231.132812 Z M 334.796875 231.15625 " fill-opacity="0.78" fill-rule="evenodd"/><path fill="#12bcbc" d="M 89.4375 232.136719 C 90.425781 232.136719 91.410156 232.089844 92.394531 231.992188 C 93.378906 231.894531 94.355469 231.753906 95.324219 231.558594 C 96.292969 231.367188 97.25 231.128906 98.195312 230.84375 C 99.140625 230.554688 100.070312 230.222656 100.984375 229.847656 C 101.898438 229.46875 102.789062 229.046875 103.664062 228.582031 C 104.535156 228.117188 105.382812 227.613281 106.203125 227.0625 C 107.023438 226.515625 107.816406 225.929688 108.582031 225.300781 C 109.347656 224.675781 110.078125 224.015625 110.777344 223.316406 C 111.476562 222.617188 112.140625 221.886719 112.765625 221.125 C 113.394531 220.363281 113.980469 219.570312 114.53125 218.75 C 115.082031 217.929688 115.589844 217.082031 116.054688 216.210938 C 116.519531 215.34375 116.941406 214.449219 117.320312 213.539062 C 117.699219 212.628906 118.03125 211.699219 118.320312 210.753906 C 118.605469 209.808594 118.847656 208.851562 119.039062 207.886719 C 119.230469 206.917969 119.378906 205.941406 119.472656 204.960938 C 119.570312 203.976562 119.621094 202.992188 119.621094 202.003906 C 119.621094 201.015625 119.570312 200.03125 119.476562 199.050781 C 119.378906 198.066406 119.234375 197.09375 119.039062 196.125 C 118.847656 195.15625 118.609375 194.199219 118.320312 193.253906 C 118.035156 192.308594 117.703125 191.382812 117.324219 190.46875 C 116.945312 189.558594 116.523438 188.667969 116.058594 187.796875 C 115.59375 186.925781 115.085938 186.078125 114.535156 185.257812 C 113.988281 184.4375 113.398438 183.644531 112.773438 182.882812 C 112.144531 182.121094 111.480469 181.390625 110.785156 180.691406 C 110.085938 179.992188 109.351562 179.332031 108.589844 178.703125 C 107.824219 178.078125 107.03125 177.492188 106.210938 176.941406 C 105.386719 176.394531 104.542969 175.886719 103.671875 175.421875 C 102.796875 174.957031 101.90625 174.535156 100.992188 174.15625 C 100.082031 173.78125 99.152344 173.449219 98.203125 173.160156 C 97.257812 172.875 96.300781 172.636719 95.332031 172.441406 C 94.363281 172.25 93.386719 172.105469 92.402344 172.007812 C 91.417969 171.914062 90.433594 171.863281 89.445312 171.863281 C 88.457031 171.863281 87.472656 171.914062 86.488281 172.007812 C 85.503906 172.105469 84.527344 172.25 83.558594 172.445312 C 82.589844 172.636719 81.632812 172.875 80.6875 173.164062 C 79.738281 173.449219 78.8125 173.78125 77.898438 174.160156 C 76.984375 174.539062 76.09375 174.960938 75.222656 175.425781 C 74.351562 175.890625 73.503906 176.398438 72.679688 176.945312 C 71.859375 177.496094 71.066406 178.082031 70.304688 178.710938 C 69.539062 179.335938 68.808594 180 68.109375 180.695312 C 67.410156 181.394531 66.75 182.125 66.121094 182.890625 C 65.496094 183.652344 64.90625 184.445312 64.359375 185.265625 C 63.808594 186.085938 63.300781 186.933594 62.835938 187.804688 C 62.371094 188.675781 61.949219 189.566406 61.570312 190.476562 C 61.195312 191.390625 60.863281 192.320312 60.574219 193.261719 C 60.289062 194.207031 60.050781 195.164062 59.855469 196.132812 C 59.664062 197.101562 59.519531 198.078125 59.421875 199.058594 C 59.328125 200.042969 59.277344 201.027344 59.277344 202.011719 C 59.28125 203 59.332031 203.984375 59.429688 204.964844 C 59.527344 205.945312 59.675781 206.917969 59.871094 207.886719 C 60.0625 208.851562 60.304688 209.808594 60.59375 210.75 C 60.878906 211.695312 61.214844 212.621094 61.59375 213.53125 C 61.972656 214.441406 62.394531 215.332031 62.859375 216.199219 C 63.324219 217.070312 63.832031 217.914062 64.382812 218.734375 C 64.929688 219.554688 65.519531 220.34375 66.144531 221.105469 C 66.769531 221.867188 67.433594 222.597656 68.132812 223.292969 C 68.828125 223.992188 69.558594 224.652344 70.324219 225.277344 C 71.085938 225.90625 71.878906 226.492188 72.699219 227.039062 C 73.519531 227.589844 74.363281 228.09375 75.234375 228.5625 C 76.105469 229.027344 76.996094 229.449219 77.90625 229.828125 C 78.816406 230.203125 79.746094 230.539062 80.691406 230.824219 C 81.632812 231.113281 82.589844 231.351562 83.558594 231.546875 C 84.527344 231.742188 85.5 231.886719 86.484375 231.984375 C 87.464844 232.085938 88.449219 232.132812 89.4375 232.136719 Z M 89.4375 232.136719 " fill-opacity="0.78" fill-rule="evenodd"/><path fill="#00b9f1" d="M 152.625 274.085938 C 153.527344 274.085938 154.425781 274.046875 155.324219 273.960938 C 156.222656 273.875 157.113281 273.746094 158 273.570312 C 158.882812 273.398438 159.757812 273.179688 160.621094 272.921875 C 161.484375 272.664062 162.335938 272.363281 163.167969 272.019531 C 164.003906 271.675781 164.816406 271.292969 165.613281 270.871094 C 166.410156 270.449219 167.183594 269.988281 167.933594 269.492188 C 168.6875 268.992188 169.410156 268.457031 170.109375 267.886719 C 170.808594 267.316406 171.476562 266.714844 172.117188 266.082031 C 172.753906 265.445312 173.363281 264.78125 173.933594 264.085938 C 174.507812 263.390625 175.046875 262.667969 175.550781 261.921875 C 176.050781 261.171875 176.515625 260.402344 176.945312 259.609375 C 177.371094 258.816406 177.757812 258.003906 178.105469 257.171875 C 178.453125 256.339844 178.757812 255.492188 179.019531 254.632812 C 179.285156 253.769531 179.503906 252.898438 179.683594 252.015625 C 179.859375 251.132812 179.992188 250.242188 180.085938 249.347656 C 180.175781 248.449219 180.21875 247.550781 180.222656 246.648438 C 180.222656 245.75 180.179688 244.851562 180.09375 243.953125 C 180.007812 243.058594 179.878906 242.167969 179.703125 241.285156 C 179.527344 240.398438 179.3125 239.527344 179.050781 238.664062 C 178.789062 237.800781 178.488281 236.953125 178.144531 236.121094 C 177.800781 235.289062 177.417969 234.476562 176.992188 233.679688 C 176.570312 232.882812 176.109375 232.113281 175.609375 231.363281 C 175.109375 230.613281 174.574219 229.890625 174 229.191406 C 173.429688 228.496094 172.828125 227.828125 172.191406 227.191406 C 171.554688 226.550781 170.886719 225.945312 170.191406 225.375 C 169.492188 224.800781 168.769531 224.265625 168.023438 223.761719 C 167.273438 223.261719 166.5 222.796875 165.707031 222.371094 C 164.910156 221.949219 164.097656 221.5625 163.265625 221.214844 C 162.433594 220.871094 161.585938 220.566406 160.722656 220.304688 C 159.859375 220.042969 158.984375 219.820312 158.101562 219.644531 C 157.21875 219.46875 156.328125 219.335938 155.429688 219.246094 C 154.53125 219.15625 153.632812 219.113281 152.730469 219.109375 C 151.828125 219.109375 150.929688 219.152344 150.03125 219.242188 C 149.132812 219.328125 148.242188 219.460938 147.359375 219.636719 C 146.472656 219.808594 145.597656 220.027344 144.738281 220.289062 C 143.875 220.550781 143.023438 220.851562 142.191406 221.195312 C 141.359375 221.539062 140.542969 221.925781 139.75 222.347656 C 138.953125 222.773438 138.179688 223.234375 137.429688 223.734375 C 136.679688 224.234375 135.957031 224.769531 135.257812 225.339844 C 134.5625 225.914062 133.894531 226.515625 133.253906 227.152344 C 132.617188 227.789062 132.011719 228.457031 131.441406 229.152344 C 130.867188 229.847656 130.332031 230.570312 129.828125 231.320312 C 129.328125 232.066406 128.863281 232.839844 128.4375 233.632812 C 128.015625 234.429688 127.628906 235.242188 127.285156 236.074219 C 126.9375 236.90625 126.632812 237.753906 126.371094 238.613281 C 126.109375 239.476562 125.890625 240.347656 125.714844 241.230469 C 125.539062 242.117188 125.40625 243.003906 125.320312 243.902344 C 125.230469 244.796875 125.1875 245.695312 125.1875 246.597656 C 125.1875 247.496094 125.234375 248.390625 125.324219 249.285156 C 125.414062 250.179688 125.546875 251.066406 125.722656 251.945312 C 125.898438 252.828125 126.117188 253.699219 126.378906 254.558594 C 126.640625 255.417969 126.941406 256.261719 127.289062 257.089844 C 127.632812 257.921875 128.015625 258.730469 128.4375 259.523438 C 128.863281 260.316406 129.324219 261.085938 129.824219 261.832031 C 130.324219 262.578125 130.855469 263.300781 131.425781 263.996094 C 131.996094 264.691406 132.597656 265.355469 133.234375 265.992188 C 133.867188 266.628906 134.53125 267.230469 135.226562 267.800781 C 135.921875 268.371094 136.640625 268.910156 137.386719 269.410156 C 138.132812 269.910156 138.902344 270.371094 139.695312 270.796875 C 140.488281 271.222656 141.296875 271.609375 142.128906 271.957031 C 142.957031 272.300781 143.800781 272.605469 144.660156 272.871094 C 145.519531 273.132812 146.390625 273.355469 147.273438 273.535156 C 148.152344 273.714844 149.039062 273.847656 149.933594 273.941406 C 150.828125 274.03125 151.726562 274.082031 152.625 274.085938 Z M 152.625 274.085938 " fill-opacity="0.78" fill-rule="evenodd"/><path fill="#8dc63f" d="M 85.097656 158.800781 C 85.789062 158.800781 86.480469 158.765625 87.171875 158.699219 C 87.859375 158.628906 88.542969 158.527344 89.222656 158.394531 C 89.902344 158.257812 90.574219 158.089844 91.234375 157.890625 C 91.898438 157.6875 92.550781 157.457031 93.191406 157.191406 C 93.828125 156.925781 94.453125 156.632812 95.066406 156.304688 C 95.675781 155.980469 96.269531 155.625 96.84375 155.238281 C 97.421875 154.855469 97.976562 154.445312 98.511719 154.003906 C 99.046875 153.566406 99.558594 153.101562 100.050781 152.613281 C 100.539062 152.125 101.003906 151.613281 101.441406 151.078125 C 101.882812 150.542969 102.292969 149.988281 102.679688 149.410156 C 103.0625 148.835938 103.417969 148.242188 103.746094 147.632812 C 104.070312 147.023438 104.367188 146.398438 104.632812 145.761719 C 104.898438 145.121094 105.128906 144.46875 105.332031 143.808594 C 105.53125 143.148438 105.699219 142.476562 105.835938 141.796875 C 105.96875 141.121094 106.070312 140.4375 106.136719 139.746094 C 106.207031 139.058594 106.238281 138.371094 106.238281 137.675781 C 106.238281 136.984375 106.207031 136.296875 106.136719 135.605469 C 106.070312 134.917969 105.96875 134.234375 105.832031 133.558594 C 105.699219 132.878906 105.527344 132.207031 105.328125 131.546875 C 105.125 130.886719 104.894531 130.234375 104.628906 129.59375 C 104.363281 128.957031 104.066406 128.332031 103.742188 127.722656 C 103.414062 127.113281 103.058594 126.519531 102.671875 125.945312 C 102.289062 125.371094 101.875 124.816406 101.4375 124.28125 C 100.996094 123.746094 100.53125 123.234375 100.042969 122.746094 C 99.554688 122.257812 99.039062 121.792969 98.503906 121.351562 C 97.96875 120.914062 97.414062 120.503906 96.839844 120.121094 C 96.261719 119.734375 95.667969 119.378906 95.058594 119.054688 C 94.445312 118.726562 93.820312 118.433594 93.183594 118.167969 C 92.542969 117.90625 91.890625 117.671875 91.226562 117.472656 C 90.566406 117.269531 89.894531 117.101562 89.214844 116.96875 C 88.535156 116.832031 87.851562 116.734375 87.164062 116.664062 C 86.472656 116.597656 85.78125 116.5625 85.089844 116.5625 C 84.398438 116.566406 83.707031 116.597656 83.015625 116.667969 C 82.328125 116.734375 81.644531 116.835938 80.964844 116.972656 C 80.285156 117.105469 79.613281 117.273438 78.953125 117.476562 C 78.289062 117.675781 77.636719 117.910156 77 118.175781 C 76.359375 118.441406 75.734375 118.734375 75.125 119.0625 C 74.511719 119.390625 73.917969 119.746094 73.34375 120.128906 C 72.769531 120.511719 72.214844 120.925781 71.679688 121.363281 C 71.144531 121.804688 70.632812 122.269531 70.140625 122.757812 C 69.652344 123.246094 69.1875 123.757812 68.75 124.292969 C 68.308594 124.828125 67.898438 125.382812 67.511719 125.960938 C 67.128906 126.535156 66.773438 127.128906 66.449219 127.738281 C 66.121094 128.347656 65.828125 128.972656 65.5625 129.613281 C 65.296875 130.25 65.0625 130.902344 64.863281 131.5625 C 64.664062 132.226562 64.496094 132.894531 64.359375 133.574219 C 64.226562 134.253906 64.125 134.9375 64.058594 135.625 C 63.988281 136.3125 63.957031 137.003906 63.957031 137.695312 C 63.957031 138.386719 63.992188 139.074219 64.0625 139.761719 C 64.132812 140.449219 64.234375 141.132812 64.371094 141.8125 C 64.503906 142.488281 64.675781 143.15625 64.875 143.820312 C 65.078125 144.480469 65.3125 145.128906 65.578125 145.769531 C 65.84375 146.40625 66.136719 147.03125 66.464844 147.640625 C 66.792969 148.25 67.148438 148.839844 67.53125 149.414062 C 67.917969 149.988281 68.328125 150.542969 68.769531 151.078125 C 69.207031 151.613281 69.671875 152.121094 70.160156 152.609375 C 70.652344 153.101562 71.164062 153.5625 71.699219 154 C 72.234375 154.441406 72.789062 154.851562 73.363281 155.234375 C 73.9375 155.621094 74.53125 155.972656 75.140625 156.300781 C 75.75 156.625 76.375 156.921875 77.015625 157.1875 C 77.652344 157.449219 78.304688 157.683594 78.964844 157.886719 C 79.628906 158.085938 80.300781 158.253906 80.976562 158.390625 C 81.65625 158.523438 82.339844 158.628906 83.027344 158.695312 C 83.714844 158.765625 84.40625 158.796875 85.097656 158.800781 Z M 85.097656 158.800781 " fill-opacity="0.78" fill-rule="evenodd"/><g clip-path="url(#9f3d728a6d)"><path fill="#ffd900" d="M 74.554688 85.214844 C 74.554688 85.8125 74.523438 86.410156 74.464844 87.007812 C 74.40625 87.601562 74.320312 88.195312 74.203125 88.78125 C 74.085938 89.367188 73.941406 89.949219 73.765625 90.523438 C 73.589844 91.09375 73.390625 91.660156 73.160156 92.210938 C 72.929688 92.765625 72.675781 93.304688 72.390625 93.832031 C 72.109375 94.363281 71.800781 94.875 71.46875 95.371094 C 71.136719 95.871094 70.777344 96.351562 70.398438 96.8125 C 70.019531 97.277344 69.617188 97.71875 69.191406 98.144531 C 68.769531 98.566406 68.324219 98.96875 67.859375 99.347656 C 67.398438 99.730469 66.917969 100.085938 66.417969 100.417969 C 65.917969 100.75 65.40625 101.058594 64.878906 101.339844 C 64.347656 101.621094 63.808594 101.878906 63.253906 102.109375 C 62.699219 102.335938 62.136719 102.539062 61.5625 102.710938 C 60.988281 102.886719 60.40625 103.03125 59.820312 103.148438 C 59.230469 103.265625 58.640625 103.351562 58.042969 103.410156 C 57.445312 103.46875 56.847656 103.5 56.246094 103.5 C 55.648438 103.5 55.050781 103.46875 54.453125 103.410156 C 53.855469 103.351562 53.265625 103.265625 52.675781 103.148438 C 52.089844 103.03125 51.507812 102.886719 50.933594 102.710938 C 50.359375 102.539062 49.796875 102.335938 49.242188 102.109375 C 48.6875 101.878906 48.148438 101.621094 47.617188 101.339844 C 47.089844 101.058594 46.574219 100.75 46.078125 100.417969 C 45.578125 100.085938 45.097656 99.730469 44.632812 99.347656 C 44.171875 98.96875 43.726562 98.566406 43.304688 98.144531 C 42.878906 97.71875 42.476562 97.277344 42.097656 96.8125 C 41.714844 96.351562 41.359375 95.871094 41.027344 95.371094 C 40.695312 94.875 40.386719 94.363281 40.101562 93.832031 C 39.820312 93.304688 39.566406 92.765625 39.335938 92.210938 C 39.105469 91.660156 38.902344 91.09375 38.730469 90.523438 C 38.554688 89.949219 38.410156 89.367188 38.292969 88.78125 C 38.175781 88.195312 38.089844 87.601562 38.03125 87.007812 C 37.972656 86.410156 37.941406 85.8125 37.941406 85.214844 C 37.941406 84.617188 37.972656 84.019531 38.03125 83.421875 C 38.089844 82.824219 38.175781 82.234375 38.292969 81.648438 C 38.410156 81.058594 38.554688 80.480469 38.730469 79.90625 C 38.902344 79.332031 39.105469 78.769531 39.335938 78.214844 C 39.566406 77.664062 39.820312 77.121094 40.101562 76.59375 C 40.386719 76.066406 40.695312 75.554688 41.027344 75.054688 C 41.359375 74.558594 41.714844 74.078125 42.097656 73.613281 C 42.476562 73.152344 42.878906 72.707031 43.304688 72.285156 C 43.726562 71.859375 44.171875 71.460938 44.632812 71.078125 C 45.097656 70.699219 45.578125 70.34375 46.078125 70.011719 C 46.574219 69.679688 47.089844 69.371094 47.617188 69.089844 C 48.148438 68.804688 48.6875 68.550781 49.242188 68.320312 C 49.796875 68.089844 50.359375 67.890625 50.933594 67.714844 C 51.507812 67.542969 52.089844 67.398438 52.675781 67.28125 C 53.265625 67.164062 53.855469 67.074219 54.453125 67.015625 C 55.050781 66.957031 55.648438 66.929688 56.246094 66.929688 C 56.847656 66.929688 57.445312 66.957031 58.042969 67.015625 C 58.640625 67.074219 59.230469 67.164062 59.820312 67.28125 C 60.40625 67.398438 60.988281 67.542969 61.5625 67.714844 C 62.136719 67.890625 62.699219 68.089844 63.253906 68.320312 C 63.808594 68.550781 64.347656 68.804688 64.878906 69.089844 C 65.40625 69.371094 65.917969 69.679688 66.417969 70.011719 C 66.917969 70.34375 67.398438 70.699219 67.859375 71.078125 C 68.324219 71.460938 68.769531 71.859375 69.191406 72.285156 C 69.617188 72.707031 70.019531 73.152344 70.398438 73.613281 C 70.777344 74.078125 71.136719 74.558594 71.46875 75.054688 C 71.800781 75.554688 72.109375 76.066406 72.390625 76.59375 C 72.675781 77.121094 72.929688 77.664062 73.160156 78.214844 C 73.390625 78.769531 73.589844 79.332031 73.765625 79.90625 C 73.941406 80.480469 74.085938 81.058594 74.203125 81.648438 C 74.320312 82.234375 74.40625 82.824219 74.464844 83.421875 C 74.523438 84.019531 74.554688 84.617188 74.554688 85.214844 Z M 74.554688 85.214844 " fill-opacity="0.78" fill-rule="nonzero"/></g><path fill="#009444" d="M 94.925781 51.710938 C 95.484375 51.710938 96.042969 51.683594 96.601562 51.628906 C 97.15625 51.574219 97.710938 51.492188 98.257812 51.386719 C 98.808594 51.277344 99.351562 51.140625 99.886719 50.980469 C 100.421875 50.816406 100.949219 50.628906 101.464844 50.414062 C 101.984375 50.203125 102.488281 49.964844 102.984375 49.699219 C 103.476562 49.4375 103.957031 49.148438 104.421875 48.839844 C 104.890625 48.53125 105.339844 48.195312 105.769531 47.84375 C 106.203125 47.488281 106.617188 47.113281 107.015625 46.71875 C 107.410156 46.324219 107.785156 45.910156 108.140625 45.476562 C 108.496094 45.046875 108.832031 44.597656 109.140625 44.132812 C 109.453125 43.667969 109.742188 43.1875 110.003906 42.695312 C 110.269531 42.203125 110.507812 41.699219 110.722656 41.179688 C 110.9375 40.664062 111.125 40.140625 111.289062 39.605469 C 111.453125 39.070312 111.589844 38.527344 111.699219 37.980469 C 111.808594 37.429688 111.890625 36.878906 111.945312 36.320312 C 112 35.765625 112.027344 35.207031 112.027344 34.648438 C 112.027344 34.089844 112 33.53125 111.945312 32.972656 C 111.890625 32.417969 111.808594 31.863281 111.703125 31.316406 C 111.59375 30.769531 111.457031 30.226562 111.292969 29.691406 C 111.132812 29.15625 110.945312 28.628906 110.730469 28.113281 C 110.515625 27.597656 110.277344 27.089844 110.015625 26.597656 C 109.75 26.105469 109.460938 25.625 109.152344 25.160156 C 108.839844 24.695312 108.507812 24.246094 108.152344 23.8125 C 107.796875 23.382812 107.421875 22.96875 107.027344 22.574219 C 106.632812 22.175781 106.21875 21.800781 105.785156 21.445312 C 105.351562 21.089844 104.902344 20.757812 104.4375 20.449219 C 103.972656 20.136719 103.492188 19.851562 103 19.585938 C 102.503906 19.320312 102 19.082031 101.484375 18.867188 C 100.964844 18.65625 100.4375 18.464844 99.902344 18.304688 C 99.367188 18.140625 98.824219 18.003906 98.277344 17.898438 C 97.726562 17.789062 97.175781 17.707031 96.617188 17.648438 C 96.058594 17.59375 95.5 17.566406 94.941406 17.566406 C 94.382812 17.566406 93.824219 17.59375 93.265625 17.648438 C 92.710938 17.703125 92.15625 17.785156 91.605469 17.894531 C 91.058594 18.003906 90.515625 18.140625 89.980469 18.300781 C 89.445312 18.464844 88.917969 18.652344 88.398438 18.867188 C 87.882812 19.078125 87.378906 19.320312 86.882812 19.582031 C 86.390625 19.84375 85.910156 20.132812 85.445312 20.441406 C 84.980469 20.753906 84.53125 21.085938 84.097656 21.441406 C 83.664062 21.796875 83.25 22.171875 82.855469 22.566406 C 82.457031 22.960938 82.082031 23.375 81.726562 23.808594 C 81.371094 24.238281 81.039062 24.6875 80.726562 25.152344 C 80.417969 25.617188 80.128906 26.097656 79.867188 26.589844 C 79.601562 27.082031 79.363281 27.589844 79.148438 28.105469 C 78.933594 28.621094 78.746094 29.148438 78.582031 29.683594 C 78.421875 30.21875 78.285156 30.757812 78.175781 31.308594 C 78.066406 31.855469 77.984375 32.410156 77.929688 32.964844 C 77.875 33.523438 77.847656 34.078125 77.847656 34.640625 C 77.847656 35.199219 77.875 35.753906 77.929688 36.3125 C 77.988281 36.867188 78.070312 37.417969 78.179688 37.964844 C 78.289062 38.515625 78.425781 39.054688 78.585938 39.589844 C 78.75 40.125 78.9375 40.648438 79.152344 41.164062 C 79.367188 41.679688 79.605469 42.183594 79.871094 42.679688 C 80.132812 43.171875 80.421875 43.648438 80.730469 44.113281 C 81.042969 44.578125 81.375 45.027344 81.730469 45.457031 C 82.085938 45.890625 82.460938 46.304688 82.855469 46.699219 C 83.25 47.09375 83.664062 47.46875 84.097656 47.824219 C 84.527344 48.175781 84.976562 48.511719 85.441406 48.820312 C 85.90625 49.132812 86.386719 49.417969 86.878906 49.683594 C 87.371094 49.945312 87.875 50.1875 88.390625 50.402344 C 88.910156 50.613281 89.433594 50.804688 89.96875 50.964844 C 90.503906 51.128906 91.046875 51.265625 91.59375 51.375 C 92.140625 51.484375 92.695312 51.570312 93.25 51.625 C 93.808594 51.679688 94.363281 51.710938 94.925781 51.710938 Z M 94.925781 51.710938 " fill-opacity="0.78" fill-rule="evenodd"/><path fill="#56ba48" d="M 100.726562 94.257812 C 101.46875 94.257812 102.203125 94.1875 102.929688 94.042969 C 103.65625 93.898438 104.359375 93.683594 105.046875 93.402344 C 105.730469 93.117188 106.382812 92.769531 106.996094 92.359375 C 107.613281 91.945312 108.183594 91.480469 108.707031 90.957031 C 109.234375 90.433594 109.699219 89.863281 110.113281 89.246094 C 110.523438 88.632812 110.871094 87.980469 111.15625 87.296875 C 111.441406 86.613281 111.652344 85.910156 111.796875 85.183594 C 111.941406 84.457031 112.015625 83.722656 112.015625 82.980469 C 112.015625 82.242188 111.941406 81.507812 111.796875 80.78125 C 111.652344 80.054688 111.441406 79.351562 111.15625 78.667969 C 110.871094 77.984375 110.523438 77.332031 110.113281 76.71875 C 109.699219 76.101562 109.234375 75.53125 108.707031 75.007812 C 108.183594 74.484375 107.613281 74.015625 106.996094 73.605469 C 106.382812 73.195312 105.730469 72.847656 105.046875 72.5625 C 104.359375 72.28125 103.65625 72.066406 102.929688 71.921875 C 102.203125 71.777344 101.46875 71.707031 100.726562 71.707031 C 99.984375 71.707031 99.25 71.777344 98.523438 71.921875 C 97.796875 72.066406 97.089844 72.28125 96.40625 72.5625 C 95.722656 72.847656 95.070312 73.195312 94.453125 73.605469 C 93.835938 74.015625 93.265625 74.484375 92.742188 75.007812 C 92.21875 75.53125 91.75 76.101562 91.339844 76.71875 C 90.925781 77.332031 90.578125 77.984375 90.296875 78.667969 C 90.011719 79.351562 89.796875 80.054688 89.652344 80.78125 C 89.507812 81.507812 89.4375 82.242188 89.4375 82.980469 C 89.4375 83.722656 89.511719 84.453125 89.65625 85.179688 C 89.804688 85.90625 90.019531 86.609375 90.304688 87.292969 C 90.585938 87.976562 90.933594 88.625 91.347656 89.242188 C 91.757812 89.855469 92.226562 90.425781 92.75 90.949219 C 93.273438 91.472656 93.84375 91.9375 94.460938 92.351562 C 95.074219 92.761719 95.726562 93.109375 96.410156 93.394531 C 97.09375 93.675781 97.800781 93.890625 98.523438 94.039062 C 99.25 94.183594 99.984375 94.257812 100.726562 94.257812 Z M 100.726562 94.257812 " fill-opacity="0.78" fill-rule="evenodd"/><path fill="#fbad17" d="M 124.273438 22.554688 C 125.011719 22.554688 125.746094 22.480469 126.472656 22.335938 C 127.199219 22.191406 127.90625 21.976562 128.59375 21.695312 C 129.277344 21.410156 129.925781 21.0625 130.542969 20.652344 C 131.160156 20.242188 131.730469 19.773438 132.253906 19.25 C 132.777344 18.726562 133.246094 18.15625 133.660156 17.542969 C 134.070312 16.925781 134.417969 16.277344 134.703125 15.59375 C 134.984375 14.90625 135.199219 14.203125 135.34375 13.476562 C 135.488281 12.75 135.5625 12.015625 135.5625 11.277344 C 135.5625 10.535156 135.488281 9.804688 135.34375 9.078125 C 135.199219 8.351562 134.984375 7.644531 134.703125 6.960938 C 134.417969 6.277344 134.070312 5.628906 133.660156 5.011719 C 133.246094 4.394531 132.777344 3.828125 132.253906 3.304688 C 131.730469 2.777344 131.160156 2.3125 130.542969 1.902344 C 129.925781 1.488281 129.277344 1.140625 128.59375 0.859375 C 127.90625 0.574219 127.199219 0.359375 126.472656 0.214844 C 125.746094 0.0703125 125.011719 0 124.273438 0 C 123.53125 0 122.796875 0.0703125 122.070312 0.214844 C 121.34375 0.359375 120.636719 0.574219 119.953125 0.859375 C 119.265625 1.140625 118.617188 1.488281 118 1.902344 C 117.382812 2.3125 116.8125 2.777344 116.289062 3.304688 C 115.765625 3.828125 115.296875 4.394531 114.886719 5.011719 C 114.472656 5.628906 114.125 6.277344 113.839844 6.960938 C 113.558594 7.644531 113.34375 8.351562 113.199219 9.078125 C 113.054688 9.804688 112.980469 10.535156 112.980469 11.277344 C 112.984375 12.015625 113.058594 12.75 113.203125 13.476562 C 113.347656 14.199219 113.5625 14.90625 113.847656 15.589844 C 114.132812 16.269531 114.480469 16.921875 114.894531 17.535156 C 115.304688 18.152344 115.773438 18.71875 116.296875 19.242188 C 116.820312 19.765625 117.390625 20.234375 118.003906 20.644531 C 118.621094 21.054688 119.269531 21.402344 119.957031 21.6875 C 120.640625 21.972656 121.34375 22.1875 122.070312 22.332031 C 122.796875 22.476562 123.53125 22.550781 124.273438 22.554688 Z M 124.273438 22.554688 " fill-opacity="0.78" fill-rule="evenodd"/><path fill="#f15c22" d="M 54.929688 47.691406 C 55.488281 47.6875 56.042969 47.632812 56.59375 47.519531 C 57.140625 47.40625 57.675781 47.242188 58.191406 47.027344 C 58.710938 46.8125 59.199219 46.546875 59.664062 46.234375 C 60.128906 45.921875 60.558594 45.566406 60.953125 45.167969 C 61.347656 44.769531 61.703125 44.339844 62.011719 43.871094 C 62.320312 43.40625 62.582031 42.914062 62.796875 42.394531 C 63.007812 41.875 63.167969 41.34375 63.277344 40.792969 C 63.382812 40.242188 63.4375 39.6875 63.433594 39.128906 C 63.433594 38.570312 63.375 38.015625 63.265625 37.464844 C 63.15625 36.917969 62.992188 36.382812 62.773438 35.867188 C 62.558594 35.351562 62.296875 34.859375 61.980469 34.394531 C 61.667969 33.929688 61.316406 33.5 60.917969 33.105469 C 60.519531 32.710938 60.089844 32.359375 59.621094 32.046875 C 59.15625 31.738281 58.664062 31.476562 58.144531 31.261719 C 57.625 31.050781 57.089844 30.890625 56.542969 30.78125 C 55.992188 30.671875 55.4375 30.617188 54.875 30.621094 C 54.316406 30.621094 53.761719 30.675781 53.210938 30.785156 C 52.660156 30.894531 52.128906 31.058594 51.609375 31.273438 C 51.09375 31.488281 50.601562 31.75 50.132812 32.0625 C 49.667969 32.375 49.238281 32.726562 48.84375 33.125 C 48.445312 33.519531 48.09375 33.949219 47.78125 34.417969 C 47.46875 34.882812 47.207031 35.375 46.992188 35.890625 C 46.777344 36.410156 46.617188 36.941406 46.507812 37.492188 C 46.398438 38.039062 46.34375 38.59375 46.34375 39.15625 C 46.34375 39.714844 46.402344 40.273438 46.511719 40.824219 C 46.625 41.375 46.789062 41.90625 47.003906 42.425781 C 47.222656 42.945312 47.484375 43.4375 47.800781 43.902344 C 48.113281 44.371094 48.46875 44.800781 48.867188 45.195312 C 49.265625 45.59375 49.699219 45.945312 50.167969 46.257812 C 50.636719 46.570312 51.128906 46.832031 51.648438 47.046875 C 52.167969 47.257812 52.707031 47.421875 53.257812 47.527344 C 53.808594 47.636719 54.367188 47.691406 54.929688 47.691406 Z M 54.929688 47.691406 " fill-opacity="0.78" fill-rule="evenodd"/><path fill="#fbad17" d="M 258.058594 134.769531 C 258.058594 135.9375 258.03125 137.105469 257.972656 138.269531 C 257.914062 139.4375 257.828125 140.601562 257.714844 141.761719 C 257.601562 142.925781 257.457031 144.082031 257.285156 145.238281 C 257.113281 146.390625 256.914062 147.542969 256.6875 148.6875 C 256.457031 149.832031 256.203125 150.96875 255.917969 152.101562 C 255.632812 153.234375 255.324219 154.359375 254.984375 155.476562 C 254.644531 156.59375 254.277344 157.703125 253.882812 158.800781 C 253.492188 159.898438 253.070312 160.988281 252.621094 162.066406 C 252.175781 163.144531 251.703125 164.210938 251.203125 165.269531 C 250.703125 166.324219 250.175781 167.367188 249.625 168.394531 C 249.074219 169.425781 248.5 170.441406 247.898438 171.441406 C 247.296875 172.441406 246.671875 173.429688 246.023438 174.398438 C 245.375 175.371094 244.703125 176.324219 244.007812 177.261719 C 243.308594 178.199219 242.589844 179.117188 241.851562 180.019531 C 241.109375 180.921875 240.34375 181.808594 239.558594 182.671875 C 238.777344 183.535156 237.96875 184.382812 237.144531 185.207031 C 236.316406 186.03125 235.472656 186.835938 234.605469 187.621094 C 233.738281 188.40625 232.855469 189.167969 231.953125 189.90625 C 231.046875 190.648438 230.125 191.367188 229.1875 192.0625 C 228.25 192.757812 227.292969 193.429688 226.324219 194.078125 C 225.351562 194.726562 224.363281 195.351562 223.363281 195.949219 C 222.359375 196.550781 221.34375 197.125 220.3125 197.675781 C 219.28125 198.226562 218.238281 198.75 217.179688 199.25 C 216.125 199.75 215.058594 200.222656 213.976562 200.667969 C 212.898438 201.117188 211.808594 201.535156 210.707031 201.929688 C 209.605469 202.324219 208.496094 202.6875 207.378906 203.027344 C 206.261719 203.367188 205.136719 203.675781 204 203.960938 C 202.867188 204.246094 201.726562 204.5 200.582031 204.726562 C 199.433594 204.957031 198.285156 205.15625 197.128906 205.328125 C 195.972656 205.496094 194.8125 205.640625 193.648438 205.753906 C 192.488281 205.871094 191.320312 205.957031 190.15625 206.011719 C 188.988281 206.070312 187.820312 206.097656 186.652344 206.097656 C 185.480469 206.097656 184.3125 206.070312 183.148438 206.011719 C 181.980469 205.957031 180.8125 205.871094 179.652344 205.753906 C 178.488281 205.640625 177.328125 205.496094 176.171875 205.328125 C 175.015625 205.15625 173.867188 204.957031 172.71875 204.726562 C 171.574219 204.5 170.433594 204.246094 169.300781 203.960938 C 168.167969 203.675781 167.039062 203.367188 165.921875 203.027344 C 164.804688 202.6875 163.695312 202.324219 162.59375 201.929688 C 161.492188 201.535156 160.402344 201.117188 159.324219 200.667969 C 158.246094 200.222656 157.175781 199.75 156.121094 199.25 C 155.0625 198.75 154.019531 198.226562 152.988281 197.675781 C 151.957031 197.125 150.941406 196.550781 149.941406 195.949219 C 148.9375 195.351562 147.949219 194.726562 146.976562 194.078125 C 146.007812 193.429688 145.050781 192.757812 144.113281 192.0625 C 143.175781 191.367188 142.253906 190.648438 141.351562 189.90625 C 140.445312 189.167969 139.5625 188.40625 138.695312 187.621094 C 137.828125 186.835938 136.984375 186.03125 136.15625 185.207031 C 135.332031 184.382812 134.527344 183.535156 133.742188 182.671875 C 132.957031 181.808594 132.191406 180.921875 131.453125 180.019531 C 130.710938 179.117188 129.992188 178.199219 129.296875 177.261719 C 128.597656 176.324219 127.925781 175.371094 127.277344 174.398438 C 126.628906 173.429688 126.003906 172.441406 125.402344 171.441406 C 124.800781 170.441406 124.226562 169.425781 123.675781 168.394531 C 123.125 167.367188 122.597656 166.324219 122.097656 165.269531 C 121.597656 164.210938 121.125 163.144531 120.679688 162.066406 C 120.230469 160.988281 119.8125 159.898438 119.417969 158.800781 C 119.023438 157.703125 118.65625 156.59375 118.316406 155.476562 C 117.976562 154.359375 117.667969 153.234375 117.382812 152.101562 C 117.097656 150.96875 116.84375 149.832031 116.613281 148.6875 C 116.386719 147.542969 116.1875 146.390625 116.015625 145.238281 C 115.84375 144.082031 115.699219 142.925781 115.585938 141.761719 C 115.472656 140.601562 115.386719 139.4375 115.328125 138.269531 C 115.269531 137.105469 115.242188 135.9375 115.242188 134.769531 C 115.242188 133.605469 115.269531 132.4375 115.328125 131.269531 C 115.386719 130.105469 115.472656 128.941406 115.585938 127.78125 C 115.699219 126.617188 115.84375 125.460938 116.015625 124.304688 C 116.1875 123.152344 116.386719 122 116.613281 120.855469 C 116.84375 119.710938 117.097656 118.574219 117.382812 117.441406 C 117.667969 116.308594 117.976562 115.183594 118.316406 114.066406 C 118.65625 112.949219 119.023438 111.839844 119.417969 110.742188 C 119.8125 109.644531 120.230469 108.554688 120.679688 107.476562 C 121.125 106.398438 121.597656 105.332031 122.097656 104.273438 C 122.597656 103.21875 123.125 102.175781 123.675781 101.148438 C 124.226562 100.117188 124.800781 99.101562 125.402344 98.101562 C 126.003906 97.101562 126.628906 96.113281 127.277344 95.144531 C 127.925781 94.171875 128.597656 93.21875 129.296875 92.28125 C 129.992188 91.34375 130.710938 90.425781 131.453125 89.523438 C 132.191406 88.621094 132.957031 87.734375 133.742188 86.871094 C 134.527344 86.007812 135.332031 85.160156 136.15625 84.335938 C 136.984375 83.511719 137.828125 82.707031 138.695312 81.921875 C 139.5625 81.136719 140.445312 80.375 141.351562 79.632812 C 142.253906 78.894531 143.175781 78.175781 144.113281 77.480469 C 145.050781 76.785156 146.007812 76.113281 146.976562 75.464844 C 147.949219 74.816406 148.9375 74.191406 149.941406 73.59375 C 150.941406 72.992188 151.957031 72.417969 152.988281 71.867188 C 154.019531 71.316406 155.0625 70.792969 156.121094 70.292969 C 157.175781 69.792969 158.246094 69.320312 159.324219 68.875 C 160.402344 68.425781 161.492188 68.007812 162.59375 67.613281 C 163.695312 67.21875 164.804688 66.855469 165.921875 66.515625 C 167.039062 66.175781 168.167969 65.867188 169.300781 65.582031 C 170.433594 65.296875 171.574219 65.042969 172.71875 64.816406 C 173.867188 64.585938 175.015625 64.386719 176.171875 64.214844 C 177.328125 64.042969 178.488281 63.902344 179.652344 63.789062 C 180.8125 63.671875 181.980469 63.585938 183.148438 63.53125 C 184.3125 63.472656 185.480469 63.445312 186.652344 63.445312 C 187.820312 63.445312 188.988281 63.472656 190.15625 63.53125 C 191.320312 63.585938 192.488281 63.671875 193.648438 63.789062 C 194.8125 63.902344 195.972656 64.042969 197.128906 64.214844 C 198.285156 64.386719 199.433594 64.585938 200.582031 64.816406 C 201.726562 65.042969 202.867188 65.296875 204 65.582031 C 205.136719 65.867188 206.261719 66.175781 207.378906 66.515625 C 208.496094 66.855469 209.605469 67.21875 210.707031 67.613281 C 211.808594 68.007812 212.898438 68.425781 213.976562 68.875 C 215.058594 69.320312 216.125 69.792969 217.179688 70.292969 C 218.238281 70.792969 219.28125 71.316406 220.3125 71.867188 C 221.34375 72.417969 222.359375 72.992188 223.363281 73.59375 C 224.363281 74.191406 225.351562 74.816406 226.324219 75.464844 C 227.292969 76.113281 228.25 76.785156 229.1875 77.480469 C 230.125 78.175781 231.046875 78.894531 231.953125 79.632812 C 232.855469 80.375 233.738281 81.136719 234.605469 81.921875 C 235.472656 82.707031 236.316406 83.511719 237.144531 84.335938 C 237.96875 85.160156 238.777344 86.007812 239.558594 86.871094 C 240.34375 87.734375 241.109375 88.621094 241.851562 89.523438 C 242.589844 90.425781 243.308594 91.34375 244.007812 92.28125 C 244.703125 93.21875 245.375 94.171875 246.023438 95.144531 C 246.671875 96.113281 247.296875 97.101562 247.898438 98.101562 C 248.5 99.101562 249.074219 100.117188 249.625 101.148438 C 250.175781 102.175781 250.703125 103.21875 251.203125 104.273438 C 251.703125 105.332031 252.175781 106.398438 252.621094 107.476562 C 253.070312 108.554688 253.492188 109.644531 253.882812 110.742188 C 254.277344 111.839844 254.644531 112.949219 254.984375 114.066406 C 255.324219 115.183594 255.632812 116.308594 255.917969 117.441406 C 256.203125 118.574219 256.457031 119.710938 256.6875 120.855469 C 256.914062 122 257.113281 123.152344 257.285156 124.304688 C 257.457031 125.460938 257.601562 126.617188 257.714844 127.78125 C 257.828125 128.941406 257.914062 130.105469 257.972656 131.269531 C 258.03125 132.4375 258.058594 133.605469 258.058594 134.769531 Z M 258.058594 134.769531 " fill-opacity="0.78" fill-rule="nonzero"/><path fill="#ec008b" d="M 226.097656 26.808594 C 260.320312 33.855469 288.988281 50.980469 305.894531 75.609375 C 305.75 76.652344 305.570312 77.6875 305.363281 78.71875 C 305.152344 79.753906 304.910156 80.777344 304.640625 81.792969 C 304.367188 82.808594 304.0625 83.816406 303.726562 84.816406 C 303.390625 85.8125 303.023438 86.800781 302.628906 87.777344 C 302.230469 88.75 301.804688 89.714844 301.347656 90.664062 C 300.890625 91.613281 300.40625 92.546875 299.890625 93.464844 C 299.378906 94.382812 298.835938 95.285156 298.265625 96.171875 C 297.695312 97.058594 297.097656 97.925781 296.472656 98.773438 C 295.847656 99.621094 295.199219 100.449219 294.523438 101.257812 C 293.847656 102.066406 293.148438 102.851562 292.425781 103.617188 C 291.699219 104.382812 290.953125 105.125 290.183594 105.84375 C 289.410156 106.5625 288.621094 107.257812 287.808594 107.925781 C 286.992188 108.59375 286.160156 109.238281 285.308594 109.859375 C 284.453125 110.476562 283.582031 111.066406 282.691406 111.632812 C 281.800781 112.195312 280.894531 112.730469 279.972656 113.238281 C 279.050781 113.746094 278.109375 114.226562 277.15625 114.675781 C 276.203125 115.125 275.238281 115.546875 274.261719 115.9375 C 273.28125 116.328125 272.289062 116.6875 271.289062 117.015625 C 270.289062 117.34375 269.277344 117.640625 268.257812 117.910156 C 267.238281 118.175781 266.210938 118.410156 265.175781 118.613281 C 264.144531 118.816406 263.101562 118.984375 262.058594 119.125 C 261.011719 119.261719 259.964844 119.371094 258.914062 119.441406 C 257.863281 119.515625 256.808594 119.558594 255.753906 119.566406 C 254.703125 119.574219 253.648438 119.550781 252.59375 119.492188 C 251.542969 119.4375 250.492188 119.347656 249.445312 119.226562 C 248.398438 119.105469 247.355469 118.949219 246.320312 118.765625 C 245.28125 118.578125 244.25 118.359375 243.226562 118.109375 C 242.203125 117.859375 241.1875 117.578125 240.183594 117.265625 C 239.175781 116.953125 238.179688 116.609375 237.195312 116.234375 C 236.210938 115.859375 235.238281 115.457031 234.277344 115.023438 C 233.316406 114.585938 232.371094 114.125 231.4375 113.628906 C 230.507812 113.136719 229.59375 112.617188 228.695312 112.066406 C 227.796875 111.515625 226.914062 110.9375 226.050781 110.335938 C 225.1875 109.730469 224.34375 109.101562 223.519531 108.445312 C 222.695312 107.789062 221.894531 107.105469 221.109375 106.398438 C 220.328125 105.695312 219.570312 104.964844 218.832031 104.210938 C 218.097656 103.457031 217.382812 102.683594 216.695312 101.886719 C 216.007812 101.089844 215.34375 100.269531 214.707031 99.433594 C 214.070312 98.59375 213.457031 97.734375 212.875 96.859375 C 212.289062 95.984375 211.730469 95.089844 211.203125 94.179688 C 210.671875 93.269531 210.171875 92.34375 209.703125 91.402344 C 209.230469 90.460938 208.789062 89.503906 208.375 88.535156 C 207.964844 87.566406 207.582031 86.585938 207.230469 85.59375 C 206.878906 84.601562 206.558594 83.597656 206.269531 82.585938 C 205.976562 81.574219 205.71875 80.554688 205.496094 79.523438 C 205.269531 78.496094 205.074219 77.460938 204.914062 76.421875 C 204.75 75.382812 204.621094 74.335938 204.523438 73.289062 C 204.425781 72.242188 204.363281 71.191406 204.328125 70.136719 C 204.296875 69.085938 204.296875 68.03125 204.332031 66.980469 C 204.363281 65.929688 204.429688 64.878906 204.527344 63.828125 C 204.628906 62.78125 204.757812 61.738281 204.921875 60.695312 C 205.085938 59.65625 205.28125 58.621094 205.507812 57.59375 C 205.734375 56.566406 205.992188 55.546875 206.285156 54.535156 C 206.574219 53.523438 206.894531 52.519531 207.25 51.527344 C 207.601562 50.535156 207.984375 49.554688 208.398438 48.585938 C 208.8125 47.617188 209.253906 46.664062 209.726562 45.722656 C 210.199219 44.78125 210.703125 43.855469 211.230469 42.945312 C 211.761719 42.035156 212.320312 41.144531 212.90625 40.269531 C 213.492188 39.394531 214.101562 38.535156 214.742188 37.699219 C 215.378906 36.859375 216.042969 36.042969 216.734375 35.246094 C 217.421875 34.449219 218.136719 33.675781 218.875 32.925781 C 219.613281 32.171875 220.371094 31.441406 221.152344 30.738281 C 221.9375 30.03125 222.742188 29.351562 223.566406 28.695312 C 224.390625 28.039062 225.234375 27.410156 226.097656 26.808594 Z M 226.097656 26.808594 " fill-opacity="0.78" fill-rule="evenodd"/><path fill="#56ba48" d="M 162.609375 103.511719 C 164.007812 103.511719 165.40625 103.445312 166.800781 103.308594 C 168.195312 103.171875 169.578125 102.96875 170.953125 102.695312 C 172.328125 102.421875 173.683594 102.082031 175.023438 101.675781 C 176.363281 101.269531 177.683594 100.800781 178.976562 100.265625 C 180.269531 99.730469 181.535156 99.132812 182.769531 98.472656 C 184.007812 97.816406 185.207031 97.097656 186.371094 96.320312 C 187.535156 95.542969 188.660156 94.710938 189.742188 93.824219 C 190.828125 92.9375 191.863281 91.996094 192.855469 91.007812 C 193.84375 90.019531 194.785156 88.984375 195.671875 87.902344 C 196.5625 86.820312 197.394531 85.699219 198.175781 84.535156 C 198.953125 83.371094 199.671875 82.175781 200.332031 80.941406 C 200.992188 79.707031 201.59375 78.445312 202.128906 77.152344 C 202.664062 75.859375 203.136719 74.542969 203.542969 73.203125 C 203.949219 71.867188 204.289062 70.507812 204.5625 69.136719 C 204.835938 67.765625 205.042969 66.382812 205.179688 64.992188 C 205.320312 63.597656 205.386719 62.203125 205.386719 60.804688 C 205.386719 59.402344 205.320312 58.007812 205.183594 56.617188 C 205.046875 55.222656 204.839844 53.839844 204.566406 52.46875 C 204.292969 51.097656 203.953125 49.742188 203.546875 48.402344 C 203.140625 47.0625 202.671875 45.746094 202.136719 44.453125 C 201.597656 43.160156 201 41.898438 200.339844 40.664062 C 199.679688 39.429688 198.960938 38.230469 198.183594 37.066406 C 197.40625 35.902344 196.574219 34.78125 195.683594 33.699219 C 194.796875 32.617188 193.855469 31.582031 192.867188 30.59375 C 191.875 29.601562 190.839844 28.664062 189.757812 27.777344 C 188.675781 26.890625 187.550781 26.054688 186.386719 25.277344 C 185.222656 24.5 184.023438 23.78125 182.785156 23.125 C 181.550781 22.464844 180.285156 21.867188 178.992188 21.332031 C 177.699219 20.792969 176.382812 20.324219 175.039062 19.917969 C 173.699219 19.511719 172.34375 19.171875 170.96875 18.898438 C 169.597656 18.625 168.210938 18.421875 166.816406 18.28125 C 165.425781 18.144531 164.027344 18.078125 162.625 18.078125 C 161.226562 18.078125 159.828125 18.144531 158.433594 18.28125 C 157.039062 18.417969 155.65625 18.625 154.28125 18.898438 C 152.90625 19.167969 151.550781 19.507812 150.210938 19.914062 C 148.871094 20.320312 147.550781 20.792969 146.257812 21.328125 C 144.964844 21.863281 143.699219 22.460938 142.464844 23.121094 C 141.230469 23.777344 140.027344 24.496094 138.863281 25.273438 C 137.699219 26.050781 136.574219 26.882812 135.492188 27.773438 C 134.410156 28.660156 133.375 29.597656 132.382812 30.585938 C 131.390625 31.574219 130.453125 32.613281 129.5625 33.691406 C 128.675781 34.773438 127.839844 35.898438 127.0625 37.058594 C 126.285156 38.222656 125.566406 39.421875 124.90625 40.65625 C 124.246094 41.890625 123.648438 43.152344 123.109375 44.445312 C 122.574219 45.738281 122.101562 47.054688 121.695312 48.394531 C 121.289062 49.730469 120.949219 51.089844 120.675781 52.460938 C 120.402344 53.832031 120.199219 55.214844 120.0625 56.605469 C 119.921875 58 119.855469 59.394531 119.855469 60.792969 C 119.859375 62.191406 119.929688 63.585938 120.066406 64.976562 C 120.207031 66.371094 120.414062 67.75 120.691406 69.121094 C 120.964844 70.492188 121.304688 71.847656 121.714844 73.183594 C 122.121094 74.519531 122.59375 75.835938 123.128906 77.125 C 123.667969 78.417969 124.265625 79.679688 124.925781 80.914062 C 125.585938 82.144531 126.304688 83.34375 127.082031 84.503906 C 127.863281 85.667969 128.695312 86.789062 129.582031 87.871094 C 130.472656 88.949219 131.410156 89.984375 132.398438 90.972656 C 133.390625 91.960938 134.425781 92.898438 135.507812 93.789062 C 136.585938 94.675781 137.710938 95.507812 138.875 96.285156 C 140.035156 97.0625 141.234375 97.78125 142.46875 98.441406 C 143.703125 99.101562 144.964844 99.699219 146.257812 100.234375 C 147.550781 100.773438 148.867188 101.246094 150.207031 101.652344 C 151.542969 102.058594 152.898438 102.402344 154.273438 102.675781 C 155.644531 102.953125 157.027344 103.160156 158.417969 103.296875 C 159.8125 103.4375 161.207031 103.507812 162.609375 103.511719 Z M 162.609375 103.511719 " fill-opacity="0.78" fill-rule="evenodd"/></svg>