<svg xmlns="http://www.w3.org/2000/svg" xmlns:xlink="http://www.w3.org/1999/xlink" width="500" zoomAndPan="magnify" viewBox="0 0 375 374.999991" height="500" preserveAspectRatio="xMidYMid meet" version="1.0"><defs><g/><clipPath id="d0863c2f98"><path d="M 118.128906 99.101562 L 256.878906 99.101562 L 256.878906 237.851562 L 118.128906 237.851562 Z M 118.128906 99.101562 " clip-rule="nonzero"/></clipPath></defs><rect x="-37.5" width="450" fill="#ffffff" y="-37.499999" height="449.999989" fill-opacity="1"/><rect x="-37.5" width="450" fill="#ffffff" y="-37.499999" height="449.999989" fill-opacity="1"/><g clip-path="url(#d0863c2f98)"><path fill="#000000" d="M 253.949219 191.886719 C 252.496094 191.886719 251.320312 190.707031 251.320312 189.25 L 251.320312 108.367188 L 206.675781 153.125 C 205.644531 154.15625 203.980469 154.15625 202.953125 153.125 C 201.929688 152.09375 201.929688 150.425781 202.953125 149.394531 L 252.089844 100.136719 C 252.839844 99.382812 253.972656 99.15625 254.957031 99.566406 C 255.9375 99.972656 256.578125 100.933594 256.578125 102 L 256.578125 189.25 C 256.578125 190.707031 255.402344 191.886719 253.949219 191.886719 Z M 121.074219 237.851562 C 119.621094 237.851562 118.441406 236.671875 118.441406 235.214844 L 118.441406 143.289062 C 118.441406 142.222656 119.082031 141.257812 120.066406 140.851562 C 121.050781 140.441406 122.179688 140.667969 122.933594 141.421875 L 168.78125 187.386719 C 169.808594 188.417969 169.808594 190.085938 168.78125 191.117188 C 167.753906 192.144531 166.085938 192.144531 165.058594 191.117188 L 123.703125 149.652344 L 123.703125 235.214844 C 123.703125 236.671875 122.523438 237.851562 121.074219 237.851562 Z M 253.949219 237.851562 C 253.277344 237.851562 252.601562 237.59375 252.089844 237.078125 L 119.214844 103.867188 C 118.1875 102.835938 118.1875 101.167969 119.214844 100.136719 C 120.242188 99.109375 121.90625 99.109375 122.933594 100.136719 L 255.808594 233.351562 C 256.835938 234.378906 256.835938 236.050781 255.808594 237.078125 C 255.292969 237.59375 254.621094 237.851562 253.949219 237.851562 " fill-opacity="1" fill-rule="nonzero"/></g><g fill="#000000" fill-opacity="1"><g transform="translate(127.557783, 257.797951)"><g><path d="M 3 0 C 3.15625 0 3.238281 -0.0820312 3.238281 -0.238281 L 3.238281 -3.46875 L 5.265625 -1.101562 C 5.378906 -0.972656 5.496094 -0.972656 5.601562 -1.101562 L 7.65625 -3.492188 L 7.65625 -0.238281 C 7.65625 -0.0820312 7.738281 0 7.898438 0 L 9.753906 0 C 9.914062 0 9.996094 -0.0820312 9.996094 -0.238281 L 9.996094 -8.792969 C 9.996094 -9.238281 9.683594 -9.34375 9.410156 -9 L 5.4375 -4.03125 L 1.488281 -9 C 1.199219 -9.363281 0.902344 -9.238281 0.902344 -8.792969 L 0.902344 -0.238281 C 0.902344 -0.0820312 0.984375 0 1.140625 0 Z M 3 0 "/></g></g></g><g fill="#000000" fill-opacity="1"><g transform="translate(148.056519, 257.797951)"><g><path d="M 4.957031 -9 C 4.773438 -9.367188 4.488281 -9.367188 4.304688 -9 L 0.179688 -0.285156 C 0.105469 -0.117188 0.179688 0 0.355469 0 L 2.472656 0 C 2.601562 0 2.699219 -0.0703125 2.746094 -0.191406 L 3.039062 -0.949219 L 6.222656 -0.949219 L 6.515625 -0.191406 C 6.5625 -0.0703125 6.660156 0 6.789062 0 L 8.90625 0 C 9.082031 0 9.15625 -0.117188 9.082031 -0.285156 Z M 4.632812 -5.007812 L 5.519531 -2.746094 L 3.742188 -2.746094 Z M 4.632812 -5.007812 "/></g></g></g><g fill="#000000" fill-opacity="1"><g transform="translate(166.932208, 257.797951)"><g><path d="M 6.730469 0 C 6.890625 0 6.972656 -0.0820312 6.972656 -0.238281 L 6.972656 -1.796875 C 6.972656 -1.957031 6.890625 -2.039062 6.730469 -2.039062 L 3.285156 -2.039062 L 3.285156 -3.09375 L 6.261719 -3.09375 C 6.421875 -3.09375 6.503906 -3.179688 6.503906 -3.332031 L 6.503906 -4.773438 C 6.503906 -4.933594 6.421875 -5.015625 6.261719 -5.015625 L 3.285156 -5.015625 L 3.285156 -6.960938 L 6.730469 -6.960938 C 6.890625 -6.960938 6.972656 -7.042969 6.972656 -7.199219 L 6.972656 -8.757812 C 6.972656 -8.917969 6.890625 -9 6.730469 -9 L 1.128906 -9 C 0.972656 -9 0.890625 -8.917969 0.890625 -8.757812 L 0.890625 -0.238281 C 0.890625 -0.0820312 0.972656 0 1.128906 0 Z M 6.730469 0 "/></g></g></g><g fill="#000000" fill-opacity="1"><g transform="translate(184.19071, 257.797951)"><g><path d="M 3.671875 0.238281 C 5.378906 0.238281 7.199219 -0.421875 7.199219 -2.519531 C 7.199219 -4.1875 6.035156 -4.910156 4.96875 -5.402344 C 3.902344 -5.894531 3.058594 -6.15625 3.058594 -6.695312 C 3.058594 -7.101562 3.457031 -7.234375 4.007812 -7.234375 C 4.546875 -7.234375 5.230469 -7.101562 5.816406 -6.902344 C 5.964844 -6.847656 6.070312 -6.914062 6.117188 -7.054688 L 6.550781 -8.53125 C 6.597656 -8.6875 6.550781 -8.78125 6.398438 -8.828125 C 5.578125 -9.082031 4.617188 -9.238281 3.925781 -9.238281 C 2.242188 -9.238281 0.621094 -8.496094 0.621094 -6.527344 C 0.621094 -5.121094 1.523438 -4.417969 2.566406 -3.878906 C 3.621094 -3.332031 4.75 -3.011719 4.75 -2.414062 C 4.75 -1.957031 4.304688 -1.785156 3.683594 -1.785156 C 3.035156 -1.785156 2.171875 -1.96875 1.40625 -2.21875 C 1.257812 -2.265625 1.152344 -2.230469 1.101562 -2.074219 L 0.585938 -0.503906 C 0.539062 -0.34375 0.597656 -0.25 0.753906 -0.203125 C 1.84375 0.105469 2.78125 0.238281 3.671875 0.238281 Z M 3.671875 0.238281 "/></g></g></g><g fill="#000000" fill-opacity="1"><g transform="translate(201.484368, 257.797951)"><g><path d="M 4.464844 0 C 4.617188 0 4.703125 -0.0820312 4.703125 -0.238281 L 4.703125 -6.960938 L 6.515625 -6.960938 C 6.671875 -6.960938 6.753906 -7.042969 6.753906 -7.199219 L 6.753906 -8.757812 C 6.753906 -8.917969 6.671875 -9 6.515625 -9 L 0.480469 -9 C 0.320312 -9 0.238281 -8.917969 0.238281 -8.757812 L 0.238281 -7.199219 C 0.238281 -7.042969 0.320312 -6.960938 0.480469 -6.960938 L 2.289062 -6.960938 L 2.289062 -0.238281 C 2.289062 -0.0820312 2.378906 0 2.53125 0 Z M 4.464844 0 "/></g></g></g><g fill="#000000" fill-opacity="1"><g transform="translate(218.092479, 257.797951)"><g><path d="M 6.707031 -3.378906 C 7.59375 -3.84375 8.097656 -4.804688 8.097656 -6.105469 C 8.097656 -7.644531 7.40625 -9 4.867188 -9 L 1.128906 -9 C 0.972656 -9 0.890625 -8.917969 0.890625 -8.757812 L 0.890625 -0.238281 C 0.890625 -0.0820312 0.972656 0 1.128906 0 L 3.058594 0 C 3.214844 0 3.296875 -0.0820312 3.296875 -0.238281 L 3.296875 -3.070312 L 4.3125 -3.070312 L 5.757812 -0.179688 C 5.816406 -0.0585938 5.90625 0 6.035156 0 L 8.21875 0 C 8.402344 0 8.472656 -0.117188 8.390625 -0.285156 Z M 4.453125 -6.960938 C 4.933594 -6.960938 5.699219 -6.960938 5.699219 -6.082031 C 5.699219 -5.109375 4.785156 -5.109375 4.453125 -5.109375 L 3.296875 -5.109375 L 3.296875 -6.960938 Z M 4.453125 -6.960938 "/></g></g></g><g fill="#000000" fill-opacity="1"><g transform="translate(236.599028, 257.797951)"><g><path d="M 5.402344 0.238281 C 8.335938 0.238281 10.292969 -1.605469 10.292969 -4.5 C 10.292969 -7.394531 8.335938 -9.238281 5.402344 -9.238281 C 2.472656 -9.238281 0.527344 -7.394531 0.527344 -4.5 C 0.527344 -1.605469 2.472656 0.238281 5.402344 0.238281 Z M 5.402344 -1.921875 C 3.914062 -1.921875 2.929688 -2.90625 2.929688 -4.5 C 2.929688 -6.09375 3.914062 -7.078125 5.402344 -7.078125 C 6.902344 -7.078125 7.898438 -6.09375 7.898438 -4.5 C 7.898438 -2.90625 6.902344 -1.921875 5.402344 -1.921875 Z M 5.402344 -1.921875 "/></g></g></g><g fill="#000000" fill-opacity="1"><g transform="translate(144.42814, 277.596133)"><g><path d="M 0.921875 0 L 2.660156 0 L 2.660156 -4.640625 L 4.53125 -1.902344 L 5.738281 -1.902344 L 7.609375 -4.628906 L 7.609375 0 L 9.347656 0 L 9.347656 -7.695312 L 7.871094 -7.695312 L 5.144531 -3.707031 L 2.40625 -7.695312 L 0.921875 -7.695312 Z M 0.921875 0 "/></g></g></g><g fill="#000000" fill-opacity="1"><g transform="translate(159.094926, 277.596133)"><g><path d="M 0.921875 0 L 2.671875 0 L 2.671875 -7.695312 L 0.921875 -7.695312 Z M 0.921875 0 "/></g></g></g><g fill="#000000" fill-opacity="1"><g transform="translate(167.089429, 277.596133)"><g><path d="M 0.921875 0 L 2.660156 0 L 2.660156 -4.71875 L 6.058594 0 L 7.542969 0 L 7.542969 -7.695312 L 5.804688 -7.695312 L 5.804688 -3.011719 L 2.40625 -7.695312 L 0.921875 -7.695312 Z M 0.921875 0 "/></g></g></g><g fill="#000000" fill-opacity="1"><g transform="translate(179.953483, 277.596133)"><g><path d="M 0.921875 0 L 3.96875 0 C 6.398438 0 8.027344 -1.550781 8.027344 -3.847656 C 8.027344 -6.136719 6.398438 -7.695312 3.96875 -7.695312 L 0.921875 -7.695312 Z M 2.671875 -1.605469 L 2.671875 -6.089844 L 3.914062 -6.089844 C 5.300781 -6.089844 6.234375 -5.199219 6.234375 -3.847656 C 6.234375 -2.496094 5.300781 -1.605469 3.9375 -1.605469 Z M 2.671875 -1.605469 "/></g></g></g><g fill="#000000" fill-opacity="1"><g transform="translate(192.839524, 277.596133)"><g/></g></g><g fill="#000000" fill-opacity="1"><g transform="translate(199.822737, 277.596133)"><g><path d="M 0.921875 0 L 6.035156 0 L 6.035156 -1.636719 L 2.671875 -1.636719 L 2.671875 -7.695312 L 0.921875 -7.695312 Z M 0.921875 0 "/></g></g></g><g fill="#000000" fill-opacity="1"><g transform="translate(210.554302, 277.596133)"><g><path d="M 0.0976562 0 L 1.96875 0 L 2.484375 -1.332031 L 5.542969 -1.332031 L 6.058594 0 L 7.925781 0 L 4.871094 -7.695312 L 3.15625 -7.695312 Z M 2.9375 -2.703125 L 4.011719 -5.519531 L 5.101562 -2.703125 Z M 2.9375 -2.703125 "/></g></g></g><g fill="#000000" fill-opacity="1"><g transform="translate(222.978665, 277.596133)"><g><path d="M 0.921875 0 L 4.539062 0 C 6.101562 0 7.15625 -0.859375 7.15625 -2.15625 C 7.15625 -2.980469 6.730469 -3.640625 6.003906 -3.957031 C 6.585938 -4.300781 6.925781 -4.902344 6.925781 -5.628906 C 6.925781 -6.894531 5.925781 -7.695312 4.363281 -7.695312 L 0.921875 -7.695312 Z M 2.648438 -1.386719 L 2.648438 -3.234375 L 4.277344 -3.234375 C 4.96875 -3.234375 5.367188 -2.890625 5.367188 -2.308594 C 5.367188 -1.726562 4.96875 -1.386719 4.277344 -1.386719 Z M 2.648438 -4.5625 L 2.648438 -6.3125 L 4.101562 -6.3125 C 4.773438 -6.3125 5.144531 -6.003906 5.144531 -5.441406 C 5.144531 -4.882812 4.773438 -4.5625 4.101562 -4.5625 Z M 2.648438 -4.5625 "/></g></g></g></svg>